<svg width="144" height="144" viewBox="0 0 144 144" xmlns="http://www.w3.org/2000/svg">
  <defs>
    <linearGradient id="bg" x1="0%" y1="0%" x2="0%" y2="100%">
      <stop offset="0%" stop-color="#E8F5E9"/>
      <stop offset="100%" stop-color="#FFF8E1"/>
    </linearGradient>
  </defs>
  <rect width="144" height="144" rx="28" ry="28" fill="url(#bg)"/>
  <rect x="68" y="92" width="8" height="22" rx="2" fill="#8B5A2B"/>
  <ellipse cx="72" cy="86" rx="30" ry="24" fill="#5CB85C"/>
  <ellipse cx="56" cy="78" rx="14" ry="14" fill="#66BB6A"/>
  <ellipse cx="88" cy="76" rx="14" ry="14" fill="#66BB6A"/>
  <ellipse cx="72" cy="64" rx="12" ry="12" fill="#81C784"/>
  <ellipse cx="58" cy="56" rx="4" ry="5" fill="#D2691E"/>
  <ellipse cx="86" cy="56" rx="4" ry="5" fill="#D2691E"/>
  <circle cx="72" cy="62" r="9" fill="#E68A2E"/>
  <circle cx="69" cy="61" r="1.5" fill="#333"/>
  <circle cx="75" cy="61" r="1.5" fill="#333"/>
  <circle cx="72" cy="64" r="1" fill="#333"/>
  <circle cx="56" cy="84" r="4" fill="#E57373"/>
  <path d="M 55 81 L 56 79 L 57 81" stroke="#5D4037" stroke-width="1" fill="none"/>
  <circle cx="88" cy="88" r="3.5" fill="#E57373"/>
  <path d="M 87 85 L 88 83 L 89 85" stroke="#5D4037" stroke-width="1" fill="none"/>
  <circle cx="108" cy="38" r="2" fill="#F4B400" opacity="0.8"/>
  <circle cx="34" cy="46" r="1.5" fill="#F4B400" opacity="0.8"/>
  <circle cx="110" cy="100" r="1.5" fill="#F4B400" opacity="0.8"/>
</svg>
